<?xml version="1.0" encoding="UTF-8" standalone="no"?>
<svg
   version="1.1"
   width="961.83203"
   height="213.47374"
   viewBox="0 0 961.83203 213.47374"
   id="svg64"
   sodipodi:docname="PastPCBlueIconDarkBlueText2.svg"
   inkscape:version="1.2.2 (732a01da63, 2022-12-09)"
   xmlns:inkscape="http://www.inkscape.org/namespaces/inkscape"
   xmlns:sodipodi="http://sodipodi.sourceforge.net/DTD/sodipodi-0.dtd"
   xmlns="http://www.w3.org/2000/svg"
   xmlns:svg="http://www.w3.org/2000/svg">
  <defs
     id="defs68">
    <rect
       x="442.74808"
       y="74.045799"
       width="237.36089"
       height="195.41985"
       id="rect228" />
    <rect
       x="442.74808"
       y="74.045799"
       width="512.17639"
       height="166.00893"
       id="rect228-0" />
  </defs>
  <sodipodi:namedview
     id="namedview66"
     pagecolor="#ffffff"
     bordercolor="#000000"
     borderopacity="0.25"
     inkscape:showpageshadow="2"
     inkscape:pageopacity="0.0"
     inkscape:pagecheckerboard="0"
     inkscape:deskcolor="#d1d1d1"
     showgrid="false"
     inkscape:zoom="1.31"
     inkscape:cx="341.22137"
     inkscape:cy="162.9771"
     inkscape:window-width="1920"
     inkscape:window-height="991"
     inkscape:window-x="-9"
     inkscape:window-y="-9"
     inkscape:window-maximized="1"
     inkscape:current-layer="svg64" />
  <text
     xml:space="preserve"
     id="text226-4"
     style="font-style:normal;font-variant:normal;font-weight:normal;font-stretch:normal;font-size:133.333px;font-family:'Roboto Mono';-inkscape-font-specification:'Roboto Mono, @wght=100';font-variant-ligatures:normal;font-variant-caps:normal;font-variant-numeric:normal;font-variant-east-asian:normal;font-variation-settings:'wght' 100;white-space:pre;shape-inside:url(#rect228-0);display:inline;fill:#010c80;fill-opacity:0.964706"
     transform="matrix(1.4350339,0,0,1.4350339,-350.83215,-108.41952)"
     inkscape:export-filename="PastPCBlueIconDarkBlueText.svg"
     inkscape:export-xdpi="96"
     inkscape:export-ydpi="96"><tspan
       x="442.74805"
       y="196.64735"
       id="tspan927">PAST</tspan></text>
  <path
     d="M 106.73687,-3.2286263e-6 C 47.881439,-3.2286263e-6 -5.8494803e-7,47.881431 -5.8494803e-7,106.73687 -5.8494803e-7,165.59231 47.884109,213.47374 106.73687,213.47374 c 58.85276,0 106.73688,-47.88143 106.73688,-106.73687 C 213.47375,47.881431 165.59231,-3.2286263e-6 106.73687,-3.2286263e-6 Z m 0,197.4142332286263 c -49.998611,0 -90.677361,-40.67875 -90.677361,-90.67736 0,-49.998619 40.67875,-90.67736 90.677361,-90.67736 49.99862,0 90.67736,40.678741 90.67736,90.67736 0,49.99861 -40.67606,90.67736 -90.67736,90.67736 z"
     fill="#000000"
     data-fill-palette-color="accent"
     id="path517-1"
     style="fill:#77d4fc;fill-opacity:0.964706;stroke-width:2.67659"
     inkscape:export-filename="PastPCBlueButtonBlackText.svg"
     inkscape:export-xdpi="96"
     inkscape:export-ydpi="96" />
  <path
     d="m 106.72884,114.76663 c 2.76492,0 5.45488,-1.4293 6.94574,-3.99079 2.23228,-3.83287 0.93681,-8.74708 -2.89874,-10.979359 L 65.943039,73.681041 c -3.8302,-2.23227 -8.74976,-0.93681 -10.97936,2.89874 -2.23227,3.83287 -0.9368,8.74708 2.89874,10.97935 l 44.832811,26.115449 c 1.27138,0.74141 2.6632,1.09205 4.03361,1.09205 z"
     fill="#000000"
     data-fill-palette-color="accent"
     id="path519-7"
     style="fill:#77d4fc;fill-opacity:0.964706;stroke-width:2.67659" />
  <path
     d="m 112.81005,63.967711 0.182,-0.0723 -1.99673,-4.96506 -17.437951,7.0073 17.132821,7.83436 2.02082,-4.41369 c 16.94814,2.51867 30.26951,16.16658 31.9504,33.759779 0.1151,1.20981 0.17398,2.43301 0.17398,3.64015 0,19.56584 -14.71051,35.72439 -34.21747,37.58997 -1.19911,0.11509 -2.42231,0.1713 -3.64015,0.1713 -19.565841,0 -35.724391,-14.70784 -37.587291,-34.21479 -0.1151,-1.20982 -0.17398,-2.43302 -0.17398,-3.64016 0,-1.54171 0.11777,-3.06201 0.29978,-4.57161 l -4.95169,-2.885359 c -0.43093,2.449079 -0.70126,4.930269 -0.70126,7.456969 0,1.37844 0.0669,2.77294 0.19807,4.15139 2.12788,22.26651 20.57758,39.05941 42.919041,39.05941 1.38647,0 2.78365,-0.0642 4.15139,-0.19807 22.26651,-2.12789 39.05941,-20.57759 39.05941,-42.91637 0,-1.37844 -0.0669,-2.77294 -0.19807,-4.15139 -1.94855,-20.325989 -17.50219,-36.042889 -37.18312,-38.641859 z"
     fill="#000000"
     data-fill-palette-color="accent"
     id="path521-7"
     style="fill:#77d4fc;fill-opacity:0.964706;stroke-width:2.67659" />
  <text
     xml:space="preserve"
     id="text226"
     style="font-style:normal;font-variant:normal;font-weight:normal;font-stretch:normal;font-size:133.333px;font-family:'Roboto Mono';-inkscape-font-specification:'Roboto Mono, @wght=700';font-variant-ligatures:normal;font-variant-caps:normal;font-variant-numeric:normal;font-variant-east-asian:normal;font-variation-settings:'wght' 700;white-space:pre;shape-inside:url(#rect228);display:inline;fill:#010c80;fill-opacity:0.964706"
     transform="matrix(1.4350339,0,0,1.4350339,104.86607,-108.41952)"><tspan
       x="442.74805"
       y="196.64735"
       id="tspan929">PC</tspan></text>
</svg>
