<?xml version="1.0" encoding="UTF-8" standalone="no"?>
<svg
   version="1.1"
   width="200"
   height="44.38898"
   viewBox="0 0 961.83203 213.47372"
   id="svg64"
   sodipodi:docname="PastPCLogo3.svg"
   inkscape:version="1.2.2 (732a01da63, 2022-12-09)"
   xmlns:inkscape="http://www.inkscape.org/namespaces/inkscape"
   xmlns:sodipodi="http://sodipodi.sourceforge.net/DTD/sodipodi-0.dtd"
   xmlns="http://www.w3.org/2000/svg"
   xmlns:svg="http://www.w3.org/2000/svg">
  <defs
     id="defs68">
    <rect
       x="442.74808"
       y="74.045799"
       width="237.36089"
       height="195.41985"
       id="rect228" />
    <rect
       x="442.74808"
       y="74.045799"
       width="512.17639"
       height="166.00893"
       id="rect228-0" />
  </defs>
  <sodipodi:namedview
     id="namedview66"
     pagecolor="#ffffff"
     bordercolor="#000000"
     borderopacity="0.25"
     inkscape:showpageshadow="2"
     inkscape:pageopacity="0.0"
     inkscape:pagecheckerboard="0"
     inkscape:deskcolor="#d1d1d1"
     showgrid="false"
     inkscape:zoom="1.31"
     inkscape:cx="631.67939"
     inkscape:cy="162.21374"
     inkscape:window-width="1920"
     inkscape:window-height="991"
     inkscape:window-x="-9"
     inkscape:window-y="-9"
     inkscape:window-maximized="1"
     inkscape:current-layer="svg64" />
  <text
     xml:space="preserve"
     id="text226-4"
     style="font-style:normal;font-variant:normal;font-weight:normal;font-stretch:normal;font-size:133.333px;font-family:'Roboto Mono';-inkscape-font-specification:'Roboto Mono, @wght=100';font-variant-ligatures:normal;font-variant-caps:normal;font-variant-numeric:normal;font-variant-east-asian:normal;font-variation-settings:'wght' 100;white-space:pre;shape-inside:url(#rect228-0);display:inline;fill:#010c80;fill-opacity:0.964706"
     transform="matrix(1.4350339,0,0,1.4350339,-350.83215,-108.41952)"
     inkscape:export-filename="PastPCBlueIconDarkBlueText.svg"
     inkscape:export-xdpi="96"
     inkscape:export-ydpi="96"><tspan
       x="442.74805"
       y="196.64735"
       id="tspan7320">PAST</tspan></text>
  <text
     xml:space="preserve"
     id="text226"
     style="font-style:normal;font-variant:normal;font-weight:normal;font-stretch:normal;font-size:133.333px;font-family:'Roboto Mono';-inkscape-font-specification:'Roboto Mono, @wght=700';font-variant-ligatures:normal;font-variant-caps:normal;font-variant-numeric:normal;font-variant-east-asian:normal;font-variation-settings:'wght' 700;white-space:pre;shape-inside:url(#rect228);display:inline;fill:#010c80;fill-opacity:0.964706"
     transform="matrix(1.4350339,0,0,1.4350339,104.86607,-108.41952)"><tspan
       x="442.74805"
       y="196.64735"
       id="tspan7322">PC</tspan></text>
  <g
     id="g542"
     transform="matrix(2.2357718,0,0,2.2357718,2.6765854e-6,-8.1420898e-7)">
    <svg
       viewBox="0 0 95.481 95.481"
       height="95.481003"
       width="95.481003"
       version="1.1"
       id="svg540">
      <g
         id="g538">
        <svg
           viewBox="0 0 95.481 95.481"
           height="95.481003"
           width="95.481003"
           version="1.1"
           id="svg536">
          <g
             id="textblocktransform">
            <svg
               viewBox="0 0 95.481 95.481"
               height="95.481003"
               width="95.481003"
               id="textblock"
               version="1.1">
              <g
                 id="g532">
                <svg
                   viewBox="0 0 95.481 95.481"
                   height="95.481003"
                   width="95.481003"
                   version="1.1"
                   id="svg530">
                  <g
                     id="g528">
                    <svg
                       viewBox="0 0 95.481 95.481"
                       height="95.481003"
                       width="95.481003"
                       version="1.1"
                       id="svg526">
                      <g
                         id="g524">
                        <svg
                           version="1.1"
                           x="0"
                           y="0"
                           viewBox="13.852001 10.122 79.755997 79.755997"
                           enable-background="new 0 0 100 100"
                           xml:space="preserve"
                           height="95.481003"
                           width="95.481003"
                           class="icon-icon-0"
                           data-fill-palette-color="accent"
                           id="icon-0"
                           fill="#000000"><path
                             fill="none"
                             d="M 53.73,16.122 C 35.05,16.122 19.852,31.32 19.852,50 19.852,68.68 35.05,83.878 53.73,83.878 72.41,83.878 87.608,68.68 87.608,50 87.608,31.32 72.411,16.122 53.73,16.122 Z M 34.388,38.733 C 35.221,37.3 37.059,36.816 38.49,37.65 l 16.75,9.757 c 1.432,0.834 1.917,2.67 1.083,4.102 C 55.766,52.467 54.76,53 53.727,53 53.214,53 52.695,52.869 52.22,52.592 L 35.47,42.835 c -1.431,-0.834 -1.916,-2.67 -1.082,-4.102 z m 20.983,27.309 c -0.511,0.05 -1.033,0.074 -1.551,0.074 -8.346,0 -15.239,-6.273 -16.035,-14.593 -0.049,-0.515 -0.074,-1.036 -0.074,-1.551 0,-0.944 0.102,-1.871 0.262,-2.786 l 1.85,1.078 c -0.068,0.564 -0.112,1.133 -0.112,1.708 0,0.451 0.022,0.908 0.065,1.36 0.696,7.288 6.734,12.783 14.043,12.783 0.455,0 0.912,-0.021 1.36,-0.064 7.288,-0.697 12.784,-6.734 12.784,-14.044 0,-0.451 -0.022,-0.908 -0.065,-1.36 C 67.27,42.074 62.293,36.975 55.961,36.034 l -0.755,1.649 -6.401,-2.927 6.515,-2.618 0.746,1.855 -0.068,0.027 c 7.354,0.971 13.164,6.843 13.89,14.436 0.049,0.515 0.074,1.036 0.074,1.551 10e-4,8.347 -6.272,15.24 -14.591,16.035 z"
                             id="path515" /><path
                             d="m 53.73,10.122 c -21.989,0 -39.878,17.889 -39.878,39.878 0,21.989 17.89,39.878 39.878,39.878 21.988,0 39.878,-17.889 39.878,-39.878 0,-21.989 -17.889,-39.878 -39.878,-39.878 z m 0,73.756 C 35.05,83.878 19.852,68.68 19.852,50 c 0,-18.68 15.198,-33.878 33.878,-33.878 18.68,0 33.878,15.198 33.878,33.878 0,18.68 -15.197,33.878 -33.878,33.878 z"
                             fill="#000000"
                             data-fill-palette-color="accent"
                             id="path517"
                             style="fill:#77d4fc;fill-opacity:0.964706"
                             inkscape:export-filename="PastPCBlueButtonBlackText.svg"
                             inkscape:export-xdpi="96"
                             inkscape:export-ydpi="96" /><path
                             d="m 53.727,53 c 1.033,0 2.038,-0.534 2.595,-1.491 0.834,-1.432 0.35,-3.268 -1.083,-4.102 L 38.489,37.65 c -1.431,-0.834 -3.269,-0.35 -4.102,1.083 -0.834,1.432 -0.35,3.268 1.083,4.102 l 16.75,9.757 C 52.695,52.869 53.215,53 53.727,53 Z"
                             fill="#000000"
                             data-fill-palette-color="accent"
                             id="path519"
                             style="fill:#77d4fc;fill-opacity:0.964706" /><path
                             d="m 55.999,34.021 0.068,-0.027 -0.746,-1.855 -6.515,2.618 6.401,2.927 0.755,-1.649 c 6.332,0.941 11.309,6.04 11.937,12.613 0.043,0.452 0.065,0.909 0.065,1.36 0,7.31 -5.496,13.347 -12.784,14.044 -0.448,0.043 -0.905,0.064 -1.36,0.064 -7.31,0 -13.347,-5.495 -14.043,-12.783 -0.043,-0.452 -0.065,-0.909 -0.065,-1.36 0,-0.576 0.044,-1.144 0.112,-1.708 l -1.85,-1.078 c -0.161,0.915 -0.262,1.842 -0.262,2.786 0,0.515 0.025,1.036 0.074,1.551 0.795,8.319 7.688,14.593 16.035,14.593 0.518,0 1.04,-0.024 1.551,-0.074 8.319,-0.795 14.593,-7.688 14.593,-16.034 0,-0.515 -0.025,-1.036 -0.074,-1.551 C 69.163,40.864 63.352,34.992 55.999,34.021 Z"
                             fill="#000000"
                             data-fill-palette-color="accent"
                             id="path521"
                             style="fill:#77d4fc;fill-opacity:0.964706" /></svg>
                      </g>
                    </svg>
                  </g>
                </svg>
              </g>
            </svg>
          </g>
        </svg>
      </g>
    </svg>
  </g>
</svg>
