<?xml version="1.0" encoding="UTF-8" standalone="no"?>
<svg
   version="1.1"
   width="592.61414"
   height="144.04068"
   viewBox="0 0 592.61414 144.04068"
   id="svg47"
   sodipodi:docname="CustomIconDraft5.svg"
   inkscape:version="1.2.2 (732a01da63, 2022-12-09)"
   xml:space="preserve"
   xmlns:inkscape="http://www.inkscape.org/namespaces/inkscape"
   xmlns:sodipodi="http://sodipodi.sourceforge.net/DTD/sodipodi-0.dtd"
   xmlns="http://www.w3.org/2000/svg"
   xmlns:svg="http://www.w3.org/2000/svg"><defs
     id="defs51"><inkscape:path-effect
       effect="powerstroke"
       id="path-effect3361"
       is_visible="true"
       lpeversion="1"
       offset_points="0.20755709,0.96327435 | 1.5,8.1551301 | 2.8,8.1551301"
       not_jump="false"
       sort_points="true"
       interpolator_type="CentripetalCatmullRom"
       interpolator_beta="0.2"
       start_linecap_type="butt"
       linejoin_type="round"
       miter_limit="4"
       scale_width="1"
       end_linecap_type="round" /></defs><sodipodi:namedview
     id="namedview49"
     pagecolor="#ffffff"
     bordercolor="#000000"
     borderopacity="0.25"
     inkscape:showpageshadow="2"
     inkscape:pageopacity="0.0"
     inkscape:pagecheckerboard="0"
     inkscape:deskcolor="#d1d1d1"
     showgrid="false"
     inkscape:zoom="0.79728021"
     inkscape:cx="359.34668"
     inkscape:cy="13.169774"
     inkscape:window-width="1920"
     inkscape:window-height="991"
     inkscape:window-x="-9"
     inkscape:window-y="-9"
     inkscape:window-maximized="1"
     inkscape:current-layer="svg47" /><ellipse
     style="font-variation-settings:'wght' 100;fill:#4c96d7;fill-opacity:1;stroke:none;stroke-width:1.77567;stroke-linecap:square;stroke-linejoin:bevel;stroke-dasharray:none;stroke-opacity:1"
     id="path8366"
     cx="-40.24585"
     cy="93.705917"
     rx="71.985565"
     ry="72.239922"
     inkscape:export-filename="OuterBlackInnerMediumBlue.svg"
     inkscape:export-xdpi="96"
     inkscape:export-ydpi="96"
     transform="rotate(-68.316549)" /><path
     style="font-variation-settings:'wght' 100;fill:#ffffff;fill-opacity:0.976471;stroke:#ffffff;stroke-width:16.3103;stroke-linecap:round;stroke-linejoin:round;stroke-dasharray:none;stroke-opacity:1"
     d="M 32.704992,102.3297 55.152179,84.576451 Z"
     id="path1065"
     inkscape:export-filename="OuterBlueInnerWhite.svg"
     inkscape:export-xdpi="96"
     inkscape:export-ydpi="96" /><path
     id="path1672"
     style="font-variation-settings:'wght' 100;fill:#ffffff;fill-opacity:0.976471;fill-rule:nonzero;stroke:none;stroke-width:16.3103;stroke-linecap:round;stroke-linejoin:round"
     d="m 32.780653,57.26151 c 0.866545,-2.179361 2.713652,-7.102015 7.170222,-11.845928 0.589136,-0.627121 1.249261,-1.275506 1.981887,-1.930751 3.280722,-2.93421 7.878559,-5.876826 13.714616,-7.709461 4.606037,-1.446385 9.738196,-2.116545 15.087674,-1.647023 4.908749,0.430839 9.812388,1.806138 14.468748,4.216907 4.612976,2.388302 8.360762,5.53145 11.302368,9.010229 3.137355,3.710275 5.307892,7.735874 6.758992,11.65393 1.45063,3.9168 2.36715,8.287983 2.38646,12.947317 0.018,4.34904 -0.74874,8.848868 -2.50475,13.283358 -1.68018,4.243875 -4.049304,7.889513 -6.844353,10.914081 -3.041991,3.291788 -6.5022,5.757631 -9.993301,7.500731 -4.404051,2.19893 -8.627566,3.14274 -12.061811,3.44668 -0.915459,0.081 -1.768657,0.11629 -2.548611,0.11991 -4.878953,0.0226 -8.61792,-1.01642 -10.280961,-1.52941 a 8.1551301,8.1551301 90 0 0 -4.807616,15.58562 c 2.43713,0.75177 7.956405,2.28728 15.164165,2.25387 1.151292,-0.005 2.410669,-0.0458 3.763073,-0.14444 5.064888,-0.36938 11.342973,-1.55418 17.971555,-4.60706 5.254072,-2.41984 10.55165,-5.94323 15.2479,-10.80304 4.32617,-4.47683 7.99405,-9.942367 10.53599,-16.317058 2.65677,-6.663618 3.75866,-13.49809 3.53928,-20.076075 -0.23438,-7.027653 -1.9625,-13.488338 -4.58879,-19.030261 C 115.60614,46.988562 111.71122,41.657502 106.54527,37.178799 101.6937,32.972645 95.919904,29.69389 89.446034,27.676026 82.924285,25.643235 76.494027,25.183216 70.555381,25.8489 c -6.46027,0.724153 -12.153399,2.750551 -16.889899,5.328217 -5.993685,3.261843 -10.289803,7.294334 -13.314156,10.747658 -0.681886,0.778605 -1.299584,1.527792 -1.85926,2.232448 -4.188399,5.273374 -6.58219,10.080056 -7.501637,12.392469 z"
     sodipodi:nodetypes="cssc"
     inkscape:path-effect="#path-effect3361"
     inkscape:original-d="m 31.885541,56.905601 c 8.710758,-21.90758 33.531819,-32.60572 55.439378,-23.89496 21.907581,8.71075 32.605721,33.53181 23.894961,55.43939 -8.28466,20.835959 -31.142101,31.532289 -52.205855,25.034859"
     inkscape:export-filename="OuterBlackInnerBlue.svg"
     inkscape:export-xdpi="96"
     inkscape:export-ydpi="96" /><path
     id="path2563"
     style="font-variation-settings:'wght' 100;fill:#ffffff;fill-opacity:0.976471;stroke:#4c96d7;stroke-width:1.63211;stroke-linecap:round;stroke-linejoin:round;stroke-opacity:1"
     inkscape:transform-center-x="-3.3480877"
     inkscape:transform-center-y="-0.6730878"
     d="m 18.961234,51.805451 27.638833,10.9121 -22.141599,15.60373 z"
     sodipodi:nodetypes="cccc" /><text
     xml:space="preserve"
     style="font-style:normal;font-variant:normal;font-weight:normal;font-stretch:normal;font-size:118.641px;font-family:'Roboto Mono';-inkscape-font-specification:'Roboto Mono, @wght=700';font-variant-ligatures:normal;font-variant-caps:normal;font-variant-numeric:normal;font-variant-east-asian:normal;font-variation-settings:'wght' 700;fill:#000000;fill-opacity:1;stroke:#000000;stroke-width:1.24012;stroke-linecap:square;stroke-linejoin:bevel"
     x="169.79903"
     y="114.1935"
     id="text2612"><tspan
       sodipodi:role="line"
       id="tspan2610"
       x="169.79903"
       y="114.1935"
       style="stroke-width:1.24012">PastPC</tspan></text></svg>
