<?xml version="1.0" encoding="UTF-8" standalone="no"?>
<svg
   version="1.1"
   width="177.07933"
   height="176.62585"
   viewBox="0 0 177.07933 176.62585"
   id="svg47"
   sodipodi:docname="CustomIconDraft4.svg"
   inkscape:version="1.2.2 (732a01da63, 2022-12-09)"
   xml:space="preserve"
   xmlns:inkscape="http://www.inkscape.org/namespaces/inkscape"
   xmlns:sodipodi="http://sodipodi.sourceforge.net/DTD/sodipodi-0.dtd"
   xmlns="http://www.w3.org/2000/svg"
   xmlns:svg="http://www.w3.org/2000/svg"><defs
     id="defs51"><inkscape:path-effect
       effect="powerstroke"
       id="path-effect3361"
       is_visible="true"
       lpeversion="1"
       offset_points="0.20755709,1.1811882 | 1.5,10 | 2.8,10"
       not_jump="false"
       sort_points="true"
       interpolator_type="CentripetalCatmullRom"
       interpolator_beta="0.2"
       start_linecap_type="butt"
       linejoin_type="round"
       miter_limit="4"
       scale_width="1"
       end_linecap_type="round" /></defs><sodipodi:namedview
     id="namedview49"
     pagecolor="#ffffff"
     bordercolor="#000000"
     borderopacity="0.25"
     inkscape:showpageshadow="2"
     inkscape:pageopacity="0.0"
     inkscape:pagecheckerboard="0"
     inkscape:deskcolor="#d1d1d1"
     showgrid="false"
     inkscape:zoom="3.576422"
     inkscape:cx="80.946823"
     inkscape:cy="128.75997"
     inkscape:window-width="1920"
     inkscape:window-height="991"
     inkscape:window-x="-9"
     inkscape:window-y="-9"
     inkscape:window-maximized="1"
     inkscape:current-layer="svg47" /><ellipse
     style="font-variation-settings:'wght' 100;fill:#4c96d7;fill-opacity:1;stroke:none;stroke-width:2.17737;stroke-linecap:square;stroke-linejoin:bevel;stroke-dasharray:none;stroke-opacity:1"
     id="path8366"
     cx="-49.350357"
     cy="114.90426"
     rx="88.270287"
     ry="88.582176"
     inkscape:export-filename="OuterBlackInnerMediumBlue.svg"
     inkscape:export-xdpi="96"
     inkscape:export-ydpi="96"
     transform="rotate(-68.316549)" /><path
     style="font-variation-settings:'wght' 100;fill:#ffffff;fill-opacity:0.976471;stroke:#ffffff;stroke-width:20;stroke-linecap:round;stroke-linejoin:round;stroke-dasharray:none;stroke-opacity:1"
     d="M 40.103584,125.47896 67.628812,103.70952 Z"
     id="path1065" /><path
     id="path1672"
     style="font-variation-settings:'wght' 100;fill:#ffffff;fill-opacity:0.976471;fill-rule:nonzero;stroke:none;stroke-width:20;stroke-linecap:round;stroke-linejoin:round"
     d="m 40.196363,70.215338 c 1.062576,-2.67238 3.327538,-8.708645 8.792281,-14.525733 0.722411,-0.768989 1.531872,-1.564053 2.430233,-2.367528 4.022892,-3.597991 9.660861,-7.20629 16.817161,-9.453506 5.648025,-1.773589 11.94119,-2.595353 18.500839,-2.019616 6.019218,0.528303 12.032169,2.214725 17.741903,5.170861 5.65653,2.928588 10.25214,6.782785 13.85921,11.048541 3.84709,4.549622 6.50865,9.485899 8.28802,14.290306 1.7788,4.802867 2.90265,10.162907 2.92633,15.876284 0.0221,5.332887 -0.91811,10.850674 -3.07138,16.288343 -2.06027,5.20393 -4.96534,9.67429 -8.39269,13.38309 -3.73016,4.03646 -7.97315,7.06013 -12.25401,9.19756 -5.40035,2.69637 -10.579314,3.8537 -14.79046,4.2264 -1.122557,0.0993 -2.168768,0.1426 -3.125164,0.14703 -5.98268,0.0277 -10.567485,-1.24635 -12.606742,-1.87539 A 10,10 90 0 0 69.41669,148.7134 c 2.988463,0.92184 9.75632,2.80471 18.594633,2.76375 1.41174,-0.007 2.956015,-0.0562 4.614363,-0.17712 6.210677,-0.45293 13.909004,-1.90576 22.037114,-5.64928 6.44266,-2.96725 12.93867,-7.28771 18.69732,-13.24692 5.30484,-5.48959 9.80248,-12.19155 12.91946,-20.00834 3.2578,-8.17107 4.60896,-16.551654 4.33994,-24.617723 -0.2874,-8.617461 -2.40646,-16.539695 -5.62687,-23.335322 -3.23386,-6.824014 -8.0099,-13.361077 -14.3445,-18.852962 -5.9491,-5.157677 -13.02905,-9.17816 -20.96745,-11.652509 -7.99712,-2.492652 -15.882042,-3.056735 -23.16414,-2.24046 -7.921725,0.887974 -14.902765,3.372787 -20.710765,6.533577 -7.349588,3.999743 -12.617582,8.944471 -16.326109,13.179011 -0.836144,0.954742 -1.593578,1.873411 -2.279865,2.737476 -5.135907,6.466325 -8.071225,12.360383 -9.19867,15.195912 z"
     sodipodi:nodetypes="cssc"
     inkscape:path-effect="#path-effect3361"
     inkscape:original-d="M 39.098757,69.778914 C 49.780076,42.915367 80.216202,29.797079 107.07974,40.478395 c 26.86355,10.681317 39.98185,41.117443 29.30053,67.980995 -10.15884,25.54952 -38.187138,38.66559 -64.015978,30.6983"
     inkscape:export-filename="OuterBlackInnerBlue.svg"
     inkscape:export-xdpi="96"
     inkscape:export-ydpi="96" /><path
     id="path2563"
     style="font-variation-settings:'wght' 100;fill:#ffffff;fill-opacity:0.976471;stroke:#4c96d7;stroke-width:2.00132;stroke-linecap:round;stroke-linejoin:round;stroke-opacity:1"
     inkscape:transform-center-x="-4.1055004"
     inkscape:transform-center-y="-0.82535874"
     d="M 23.250686,63.525014 57.14204,76.905658 29.991515,96.039288 Z"
     sodipodi:nodetypes="cccc" /></svg>
